<?xml version="1.0" encoding="UTF-8" standalone="no"?>
<!-- Created with Inkscape (http://www.inkscape.org/) -->

<svg
   xmlns:dc="http://purl.org/dc/elements/1.1/"
   xmlns:cc="http://creativecommons.org/ns#"
   xmlns:rdf="http://www.w3.org/1999/02/22-rdf-syntax-ns#"
   xmlns:svg="http://www.w3.org/2000/svg"
   xmlns="http://www.w3.org/2000/svg"
   xmlns:xlink="http://www.w3.org/1999/xlink"
   xmlns:sodipodi="http://sodipodi.sourceforge.net/DTD/sodipodi-0.dtd"
   xmlns:inkscape="http://www.inkscape.org/namespaces/inkscape"
   width="389.93436mm"
   height="300.16483mm"
   viewBox="0 0 389.93434 300.16482"
   version="1.1"
   id="svg8"
   inkscape:version="0.92.3 (2405546, 2018-03-11)"
   sodipodi:docname="TVRI_JATIM.svg">
  <defs
     id="defs2">
    <linearGradient
       inkscape:collect="always"
       id="linearGradient902">
      <stop
         style="stop-color:#d40000;stop-opacity:1"
         offset="0"
         id="stop898" />
      <stop
         style="stop-color:#ffd42a;stop-opacity:1"
         offset="1"
         id="stop900" />
    </linearGradient>
    <linearGradient
       inkscape:collect="always"
       id="linearGradient890">
      <stop
         style="stop-color:#44aa00;stop-opacity:1"
         offset="0"
         id="stop886" />
      <stop
         style="stop-color:#ccff00;stop-opacity:1"
         offset="1"
         id="stop888" />
    </linearGradient>
    <linearGradient
       inkscape:collect="always"
       xlink:href="#linearGradient890"
       id="linearGradient892"
       x1="144.40443"
       y1="248.00175"
       x2="79.837357"
       y2="219.07106"
       gradientUnits="userSpaceOnUse"
       gradientTransform="translate(-7.390183,-90.667603)" />
    <linearGradient
       inkscape:collect="always"
       xlink:href="#linearGradient902"
       id="linearGradient904"
       x1="133.23991"
       y1="29.337168"
       x2="75.733131"
       y2="73.737572"
       gradientUnits="userSpaceOnUse"
       gradientTransform="translate(-2.8971595,179.87043)" />
  </defs>
  <sodipodi:namedview
     id="base"
     pagecolor="#ffffff"
     bordercolor="#666666"
     borderopacity="1.0"
     inkscape:pageopacity="0.0"
     inkscape:pageshadow="2"
     inkscape:zoom="0.08"
     inkscape:cx="-1769.558"
     inkscape:cy="75.668575"
     inkscape:document-units="mm"
     inkscape:current-layer="text921"
     showgrid="false"
     fit-margin-top="0"
     fit-margin-left="-0.3"
     fit-margin-right="0"
     fit-margin-bottom="0"
     inkscape:window-width="1366"
     inkscape:window-height="745"
     inkscape:window-x="-8"
     inkscape:window-y="-8"
     inkscape:window-maximized="1"
     showguides="true"
     inkscape:guide-bbox="true" />
  <metadata
     id="metadata5">
    <rdf:RDF>
      <cc:Work
         rdf:about="">
        <dc:format>image/svg+xml</dc:format>
        <dc:type
           rdf:resource="http://purl.org/dc/dcmitype/StillImage" />
        <dc:title></dc:title>
      </cc:Work>
    </rdf:RDF>
  </metadata>
  <g
     inkscape:label="Layer 1"
     inkscape:groupmode="layer"
     id="layer1"
     transform="translate(390.87678,-35.595347)">
    <g
       transform="matrix(0.69671824,0,0,0.69671824,-290.18434,-337.49173)"
       id="layer1-7"
       inkscape:label="Layer 1">
      <g
         id="text904"
         style="font-style:normal;font-variant:normal;font-weight:900;font-stretch:normal;font-size:157.47866821px;line-height:1.25;font-family:'Avenir Next LT Pro';-inkscape-font-specification:'Avenir Next LT Pro Heavy';letter-spacing:0px;word-spacing:0px;fill:#000000;fill-opacity:1;stroke:none;stroke-width:0.82020134"
         aria-label="TVRI">
        <g
           inkscape:label="Layer 1"
           id="layer1-9"
           transform="translate(-472.43543,-413.53968)">
          <g
             transform="matrix(1.1973285,0,0,1.1973285,-381.00767,196.01736)"
             id="g2157"
             inkscape:label="Layer 1"
             style="font-style:normal;font-variant:normal;font-weight:normal;font-stretch:normal;font-size:95.85110474px;line-height:1.25;font-family:Univers;-inkscape-font-specification:Univers;letter-spacing:0px;word-spacing:0px;fill:#000080;fill-opacity:1;stroke:none;stroke-width:0.49922448">
            <g
               id="g2155"
               style="font-style:normal;font-variant:normal;font-weight:900;font-stretch:normal;font-size:157.47866821px;line-height:1.25;font-family:'Avenir Next LT Pro';-inkscape-font-specification:'Avenir Next LT Pro Heavy';letter-spacing:0px;word-spacing:0px;fill:#000000;fill-opacity:1;stroke:none;stroke-width:0.82020134"
               aria-label="TVRI">
              <path
                 sodipodi:nodetypes="cccsccccccsccccccccccccccscccccccccccsccscscscc"
                 inkscape:connector-curvature="0"
                 id="path2151"
                 transform="scale(0.26458333)"
                 d="m 3481.5039,2376.9941 c -247.675,-0.8908 -392.8283,168.5247 -473.9298,296.5606 -24.6497,0.5312 -49.7027,0.4219 -75.705,0.4219 h -59.3906 c -10.6013,0 -18.1902,5.3055 -21.4531,15.123 -24.1206,74.5421 -47.0062,135.2234 -71.4102,203.3887 -25.9989,-66.7216 -52.7029,-145.5926 -76.0312,-204.2774 -2.9918,-7.4789 -4.3402,-13.457 -15.1524,-14.2363 h -9.7695 -209.3984 -209.6426 c -10.9547,0 -23.2103,-1.6145 -23.041,9.9589 l -0.076,49.3672 c -0.043,20.653 -0.1218,42.1773 0,63.0371 -0.068,14.7927 3.4403,15.6427 14.9257,15.3301 20.8662,-0.1973 41.3676,0.5464 64.0371,0.029 14.346,-0.015 28.5663,-0.019 42.6543,0 v 151.8828 c 0.015,40.9577 0.4011,95.3391 0,146.4297 0.09,2.2019 0.05,4.1027 0,5.7344 0.016,5.1546 2.9325,9.6781 10.6895,9.4922 14.5341,0.015 32.4658,0 53.7578,0 21.7704,-0.01 53.1451,-0.01 74.4609,0 10.734,-0.014 16.6971,0.4435 16.6329,-12.7715 3e-4,-1.2724 -10e-5,-2.6423 0,-4.1132 0,-22.5999 -0.029,-68.8336 -0.029,-144.9454 v -151.707 h 35.1621 37.1621 l 25.6211,64.625 c 35.8404,90.399 64.3265,161.4278 81.0332,202.1582 8.7922,21.435 14.3215,37.2769 15.9453,40.336 1.5536,4.2978 4.7725,5.9403 10.1074,6.4199 24.013,0.1527 45.9271,-0.2483 70.957,0 7.8528,0.099 17.9307,-0.1225 26.2872,0 8.8811,0.096 14.2104,0.1995 16.455,0 7.1767,-0.639 11.4551,-2.1441 14.0996,-5.252 2.21,-2.9133 26.3434,-61.5513 53.629,-130.3066 20.4309,-51.4827 49.019,-121.8035 63.1796,-156.0449 -2.9879,21.9895 -4.5731,44.147 -4.7461,66.3379 -2e-4,138.7022 55.0989,271.7237 153.176,369.8012 98.0771,98.0774 231.0984,153.177 369.8006,153.1773 138.7026,2e-4 271.7243,-55.0991 369.8018,-153.1767 98.0776,-98.0775 153.1769,-231.0992 153.1767,-369.8018 2e-4,-138.7026 -55.0991,-271.7244 -153.1766,-369.8019 -98.0776,-98.0776 -231.0993,-153.1769 -369.8019,-153.1767 z"
                 style="fill:#1d3365;fill-opacity:1;stroke-width:3.46151543" />
              <path
                 sodipodi:nodetypes="cccscccsscccccccccscscccccccccccccssccccccsscccccc"
                 inkscape:connector-curvature="0"
                 d="m 1001.844,745.34782 c -0.1709,-9.09298 0.1923,-21.07511 0.056,-30.48447 0.1939,-5.32199 -1.5257,-7.03486 -4.96184,-7.02023 -2.466,-0.0716 -11.4865,-0.0976 -15.51256,-0.0976 -5.61644,0 -11.8942,-0.0525 -15.22433,-0.006 -3.23563,-0.0417 -4.32262,2.11282 -4.35013,5.0482 0.0354,1.90664 -0.006,3.06416 -0.006,4.80584 0,6.10055 0.0165,15.26817 0.005,28.27638 -0.007,6.48189 -0.0207,13.91738 -0.0465,22.40216 -0.0756,24.68575 0.0404,43.43941 0.0502,51.83889 -0.21193,4.41073 0.0656,7.41671 4.66402,7.49202 3.97394,9.7e-4 8.76886,0.008 13.25011,0.007 5.7402,0.0306 11.43006,0.0597 17.13476,-0.007 3.52227,-0.0426 4.77167,-1.19941 4.95907,-5.01937 0.072,-1.8797 0.033,-3.89583 0,-5.90704 -0.048,-25.16538 0.06,-47.60068 -0.018,-71.32903 z m -121.29898,7.74523 v -14.58737 l 10.6389,-0.11384 c 6.57386,-0.0535 11.10778,2.23018 13.55681,6.46876 2.51939,4.36035 2.83236,10.74668 0.88988,15.6811 -2.12761,5.07733 -7.11113,7.13878 -17.25789,7.13878 h -7.8277 z m -3e-5,58.15112 0.0611,-15.81614 h 5.29697 c 4.15544,5.01341 8.43737,11.54643 11.40055,15.81614 l 10.64307,16.35921 h 20.58512 c 6.82985,-0.043 13.87285,0.0184 17.18105,0 9.7995,0.74354 4.63612,-5.39931 1.81579,-10.09383 -5.57961,-8.71566 -11.25863,-16.77092 -17.63712,-25.5991 l -3.76573,-5.18246 4.88909,-3.50086 c 18.8697,-13.51189 21.5362,-43.94221 5.32756,-60.79846 -12.33314,-13.22567 -21.99553,-14.70947 -43.38856,-14.60226 -16.76972,0.10456 -35.54667,-0.0552 -45.96922,0 -7.30241,-0.16388 -6.30883,2.00251 -6.5104,6.2728 0.003,4.48972 9.7e-4,10.67838 0,15.32842 -9.8e-4,5.32539 -0.006,10.71031 -0.008,16.05037 -0.0299,20.65007 0.0646,41.5117 0.1236,61.76399 0.0153,5.40173 -0.0981,9.98267 -0.11373,13.13959 0.0523,7.98572 2.85777,7.26568 8.70267,7.27431 1.70769,-0.007 4.33651,0.008 6.33862,0.006 1.7779,-9.7e-4 3.64036,-0.0708 5.53506,-0.0692 l 10.40442,0.008 c 7.03526,0.0747 9.08799,0.79049 9.08833,-6.34369 z"
                 style="fill:#ffffff;stroke-width:0.91166919"
                 id="path2153" />
            </g>
          </g>
        </g>
      </g>
    </g>
    <g
       aria-label="SPORT HD"
       style="font-style:normal;font-variant:normal;font-weight:900;font-stretch:normal;font-size:53.22131348px;line-height:1.25;font-family:'Avenir Next LT Pro';-inkscape-font-specification:'Avenir Next LT Pro Heavy';letter-spacing:0px;word-spacing:0px;fill:#4d4d4d;fill-opacity:1;stroke:none;stroke-width:0.27719435"
       id="text839">
      <g
         aria-label="JAMBI"
         style="font-style:normal;font-variant:normal;font-weight:900;font-stretch:normal;font-size:45.00771713px;line-height:1.25;font-family:'Avenir Next LT Pro';-inkscape-font-specification:'Avenir Next LT Pro Heavy';letter-spacing:0px;word-spacing:0px;fill:#4d4d4d;fill-opacity:1;stroke:none;stroke-width:0.06497856"
         id="text921">
        <g
           aria-label="JAWA TIMUR"
           style="font-style:normal;font-variant:normal;font-weight:900;font-stretch:normal;font-size:45.00771713px;line-height:1.25;font-family:'Avenir Next LT Pro';-inkscape-font-specification:'Avenir Next LT Pro Heavy';text-align:center;letter-spacing:0px;word-spacing:0px;text-anchor:middle;fill:#666666;fill-opacity:1;stroke:none;stroke-width:0.06497856"
           id="text1019">
          <path
             d="m -341.42359,335.76017 c 9.72167,0 11.79202,-6.93119 11.79202,-12.69218 v -20.07344 h -10.75684 v 20.52352 c 0,1.44025 -0.36006,2.47543 -1.7553,2.47543 -1.08019,0 -1.71029,-0.90016 -1.93533,-1.84532 l -9.18158,3.5106 c 1.21521,4.59079 6.16606,8.10139 11.83703,8.10139 z"
             style="text-align:center;text-anchor:middle;fill:#666666;fill-opacity:1;stroke-width:0.06497856"
             id="path1425"
             inkscape:connector-curvature="0" />
          <path
             d="m -306.89071,321.98781 h -5.17589 l 2.61045,-7.87635 z m -20.65855,12.87221 h 11.34195 l 1.57527,-4.68081 h 10.12674 l 1.66528,4.68081 h 11.657 l -12.42213,-31.86547 h -11.38695 z"
             style="text-align:center;text-anchor:middle;fill:#666666;fill-opacity:1;stroke-width:0.06497856"
             id="path1427"
             inkscape:connector-curvature="0" />
          <path
             d="m -267.80643,316.85693 h 0.18003 l 4.50077,18.00309 h 10.80185 l 8.86652,-31.86547 h -10.98188 l -3.4656,17.91307 h -0.18003 l -4.00568,-17.91307 h -11.20693 l -3.69063,17.91307 h -0.18003 l -3.42059,-17.91307 h -11.34194 l 8.68649,31.86547 h 10.80185 z"
             style="text-align:center;text-anchor:middle;fill:#666666;fill-opacity:1;stroke-width:0.06497856"
             id="path1429"
             inkscape:connector-curvature="0" />
          <path
             d="m -223.55611,321.98781 h -5.17589 l 2.61045,-7.87635 z m -20.65854,12.87221 h 11.34194 l 1.57527,-4.68081 h 10.12674 l 1.66529,4.68081 h 11.65699 l -12.42213,-31.86547 h -11.38695 z"
             style="text-align:center;text-anchor:middle;fill:#666666;fill-opacity:1;stroke-width:0.06497856"
             id="path1431"
             inkscape:connector-curvature="0" />
          <path
             d="m -178.4858,312.0411 h 7.83135 v -9.04655 h -26.37453 v 9.04655 h 7.83135 v 22.81892 h 10.71183 z"
             style="text-align:center;text-anchor:middle;fill:#666666;fill-opacity:1;stroke-width:0.06497856"
             id="path1433"
             inkscape:connector-curvature="0" />
          <path
             d="m -167.38648,334.86002 h 10.80186 v -31.86547 h -10.80186 z"
             style="text-align:center;text-anchor:middle;fill:#666666;fill-opacity:1;stroke-width:0.06497856"
             id="path1435"
             inkscape:connector-curvature="0" />
          <path
             d="m -140.96274,316.85693 5.85101,18.00309 h 7.56129 l 5.94102,-17.95808 0.27005,0.045 -0.31506,17.91308 h 10.39679 v -31.86547 h -14.44748 l -4.99586,17.14794 h -0.22504 l -5.76098,-17.14794 h -13.9974 v 31.86547 h 9.99171 l -0.49509,-18.00309 z"
             style="text-align:center;text-anchor:middle;fill:#666666;fill-opacity:1;stroke-width:0.06497856"
             id="path1437"
             inkscape:connector-curvature="0" />
          <path
             d="m -91.012605,335.76017 c 9.901698,0 15.077585,-5.851 15.077585,-13.4123 v -19.35332 h -10.666829 v 18.18312 c 0,3.06052 -1.530262,4.86083 -4.230725,4.86083 -2.700463,0 -4.230726,-1.80031 -4.230726,-4.86083 v -18.18312 h -10.71184 v 19.35332 c 0,7.5613 4.81583,13.4123 14.762535,13.4123 z"
             style="text-align:center;text-anchor:middle;fill:#666666;fill-opacity:1;stroke-width:0.06497856"
             id="path1439"
             inkscape:connector-curvature="0" />
          <path
             d="m -60.164725,311.32098 h 2.56544 c 1.350231,0 3.285563,0.18003 3.285563,2.47542 0,2.2954 -2.295393,2.65546 -3.73564,2.65546 h -2.115363 z m -10.261759,23.53904 h 10.351775 v -11.38696 h 0.315054 l 6.121049,11.38696 h 12.332115 l -8.10139,-12.91722 c 3.600618,-1.62028 5.580957,-4.6808 5.580957,-8.59647 0,-8.10139 -6.571126,-10.35178 -12.872207,-10.35178 h -13.727353 z"
             style="text-align:center;text-anchor:middle;fill:#666666;fill-opacity:1;stroke-width:0.06497856"
             id="path1441"
             inkscape:connector-curvature="0" />
        </g>
      </g>
    </g>
  </g>
</svg>
